<?xml version="1.0" encoding="UTF-8" standalone="no"?>
<svg width="11px" height="15px" viewBox="0 0 11 15" version="1.1" xmlns="http://www.w3.org/2000/svg" xmlns:xlink="http://www.w3.org/1999/xlink">
    <!-- Generator: sketchtool 3.8.1 (29687) - http://www.bohemiancoding.com/sketch -->
    <title>6A316D3E-7131-4612-A230-334225BCC5EC</title>
    <desc>Created with sketchtool.</desc>
    <defs></defs>
    <g id="Page-1" stroke="none" stroke-width="1" fill="none" fill-rule="evenodd">
        <g id="Main" transform="translate(-239.000000, -4177.000000)" fill="#FFFFFF">
            <g id="map-icon-2" transform="translate(239.000000, 4177.000000)">
                <g id="Capa_1">
                    <path d="M5.55349315,0 C2.56480822,0 0.133054795,2.41521088 0.133054795,5.38386395 C0.133054795,6.15820408 0.292630137,6.89752381 0.607109589,7.58146939 C1.96236986,10.5269252 4.56078082,13.6367075 5.32505479,14.519551 C5.38231507,14.585551 5.46579452,14.6235646 5.55364384,14.6235646 C5.64149315,14.6235646 5.7249726,14.585551 5.78223288,14.519551 C6.54620548,13.6368571 9.14461644,10.5272245 10.5003288,7.58146939 C10.8149589,6.89752381 10.9743836,6.15820408 10.9743836,5.38386395 C10.9740822,2.41521088 8.54232877,0 5.55349315,0 L5.55349315,0 Z M5.55349315,8.1802585 C4.0009863,8.1802585 2.73779452,6.92565986 2.73779452,5.38371429 C2.73779452,3.84161905 4.0009863,2.58702041 5.55349315,2.58702041 C7.106,2.58702041 8.36919178,3.84161905 8.36919178,5.38371429 C8.36934247,6.92565986 7.10615068,8.1802585 5.55349315,8.1802585 L5.55349315,8.1802585 Z" id="Shape"></path>
                </g>
            </g>
        </g>
    </g>
</svg>